/* XPM */
static char *cursor[]={
"32 32 45 1",
". c None",
"c c #000000",
"H c #0e0e0e",
"x c #0f0f0f",
"q c #1e1e1e",
"l c #252525",
"t c #353535",
"N c #424242",
"A c #454545",
"F c #464646",
"m c #4b4b4b",
"u c #545454",
"E c #595959",
"# c #686868",
"v c #707070",
"y c #7c7c7c",
"J c #898989",
"w c #9c9c9c",
"o c #a2a2a2",
"K c #adadad",
"D c #afafaf",
"g c #b0b0b0",
"d c #b1b1b1",
"M c #b2b2b2",
"r c #b3b3b3",
"h c #b4b4b4",
"P c #bababa",
"k c #bcbcbc",
"B c #bfbfbf",
"e c #c1c1c1",
"C c #c2c2c2",
"I c #c4c4c4",
"s c #c8c8c8",
"G c #cbcbcb",
"O c #cecece",
"f c #d0d0d0",
"n c #d1d1d1",
"a c #d3d3d3",
"Q c #d4d4d4",
"z c #d7d7d7",
"L c #d8d8d8",
"j c #d9d9d9",
"b c #dcdcdc",
"p c #e1e1e1",
"i c #f8f8f8",
"................................",
"................................",
"................................",
"................................",
"................................",
"................................",
"................................",
"..........#a....................",
".........bccd...................",
".........ecfcg..................",
".........hcficg.................",
".........dcfiicg................",
".........dcfiiicg...............",
".........dcfiiiicg..............",
".........dcfiiiiicg.............",
".........dcfiiiiiicg............",
".........dcfiiiiiiicd...........",
".........dcfiiiiiiiicj..........",
".........dcfiiiikccclm..........",
".........dcfinoipqrs............",
".........dcfnctjiuv.............",
".........dcfcwxyizA.............",
".........BccCDEFGiH.............",
".........zappIJcKpc.............",
".............LMNccJ.............",
"..............OPkQ..............",
"................................",
"................................",
"................................",
"................................",
"................................",
"................................"};
