/* XPM */
static char *pan2[]={
"32 32 31 1",
". c None",
"a c #000000",
"r c #131313",
"m c #424242",
"g c #4c4c4c",
"z c #5a5a5a",
"w c #707070",
"l c #747474",
"j c #818181",
"e c #a1a1a1",
"b c #a3a3a3",
"n c #a6a6a6",
"# c #afafaf",
"c c #b0b0b0",
"t c #b1b1b1",
"x c #b2b2b2",
"o c #b3b3b3",
"C c #b9b9b9",
"k c #bcbcbc",
"s c #c0c0c0",
"u c #c9c9c9",
"B c #cbcbcb",
"q c #d3d3d3",
"f c #d5d5d5",
"i c #d6d6d6",
"h c #dadada",
"y c #dcdcdc",
"A c #e5e5e5",
"p c #ebebeb",
"v c #ececec",
"d c #ffffff",
"................................",
"................................",
"................................",
"................................",
"................................",
"................................",
"................................",
".............#aab...............",
"..........caaaddaaae............",
"..........addaddaddaf...........",
"..........addaddaddaaae.........",
"..........addgddgddgdhai........",
"..........addjddjddjdhak........",
".......lamaddnddnddndhao........",
".......apqrddsddsddsdhat........",
".......addaddddddddddhat........",
".......addjddudduddudhat........",
".......addsduhduvduvvhat........",
".......addddddddddddvhat........",
".......adddddddddddvvhat........",
".......avdddddddddvvhhat........",
".......wluhhhhhhhhhhhuax........",
".......yzaaaaaaaaaaaaawk........",
"........ABCxtttttttttxki........",
"................................",
"................................",
"................................",
"................................",
"................................",
"................................",
"................................",
"................................"};
