/* XPM */
static char *draw_supersystem[]={
"32 32 4 1",
". c None",
"# c #000000",
"b c #808080",
"a c #ffffff",
"................................",
"................................",
"................................",
"................................",
"................................",
"................................",
"................................",
".........##############.........",
".........#aaaaaaaaaaaa#b........",
"........#aaaaaaaaaaaaaa#........",
"........#aaaaaaaaaaaaaa#b.......",
".......#aaaaaaaaaaaaaaaa#.......",
".......#aaaaaaaaaaaaaaaa#b......",
"......#aaaaaaaaaaaaaaaaaa#......",
"......#aaaaaaaaaaaaaaaaaa#b.....",
".....#aaaaaaaaaaaaaaaaaaaa#b....",
".....#aaaaaaaaaaaaaaaaaaaa#b....",
"......#aaaaaaaaaaaaaaaaaa#b.....",
"......#aaaaaaaaaaaaaaaaaa#b.....",
".......#aaaaaaaaaaaaaaaa#b......",
".......#aaaaaaaaaaaaaaaa#b......",
"........#aaaaaaaaaaaaaa#b.......",
"........#aaaaaaaaaaaaaa#b.......",
".........#aaaaaaaaaaaa#b........",
".........##############b........",
"..........bbbbbbbbbbbbbb........",
"................................",
"................................",
"................................",
"................................",
"................................",
"................................"};
