/* XPM */
static char *prova2[]={
"32 32 4 1",
". c None",
"# c #000000",
"b c #808080",
"a c #ffffff",
"................................",
"................................",
"................................",
"................................",
"........################........",
"......##aaaaaaaaaaaaaaaa##......",
".....#aaaaaaaaaaaaaaaaaaaa#b....",
".....#aaaaaaaaaaaaaaaaaaaa#b....",
"....#aaaaaaaaaaaaaaaaaaaaaa#b...",
"....#aaaaaaaaaaaaaaaaaaaaaa#b...",
"....#aaaaaaaaaaaaaaaaaaaaaa#b...",
"....#aaaaaaaaaaaaaaaaaaaaaa#b...",
"....#aaaaaaaaaaaaaaaaaaaaaa#b...",
"....#aaaaaaaaaaaaaaaaaaaaaa#b...",
"....#aaaaaaaaaaaaaaaaaaaaaa#b...",
"....#aaaaaaaaaaaaaaaaaaaaaa#b...",
"....#aaaaaaaaaaaaaaaaaaaaaa#b...",
"....#aaaaaaaaaaaaaaaaaaaaaa#b...",
"....#aaaaaaaaaaaaaaaaaaaaaa#b...",
"....#aaaaaaaaaaaaaaaaaaaaaa#b...",
"....#aaaaaaaaaaaaaaaaaaaaaa#b...",
"....#aaaaaaaaaaaaaaaaaaaaaa#b...",
"....#aaaaaaaaaaaaaaaaaaaaaa#b...",
"....#aaaaaaaaaaaaaaaaaaaaaa#b...",
".....#aaaaaaaaaaaaaaaaaaaa#b....",
".....#aaaaaaaaaaaaaaaaaaaa#b....",
"......##aaaaaaaaaaaaaaaa##b.....",
".......b################bbb.....",
"........bbbbbbbbbbbbbbbb........",
"................................",
"................................",
"................................"};
